<svg xmlns="http://www.w3.org/2000/svg" viewBox="0 0 900 434" width="900" height="434" role="img" aria-label="neofetch com o perfil tecnico de Alexandre Quintiliano">
  <rect x="1" y="1" width="898" height="432" rx="10" fill="#0d1117" stroke="#30363d" stroke-width="1.5"/>
  <path d="M1 11a10 10 0 0 1 10-10h878a10 10 0 0 1 10 10v23H1z" fill="#161b22"/>
  <line x1="1" y1="34" x2="899" y2="34" stroke="#30363d" stroke-width="1.5"/>
  <circle cx="22" cy="17.5" r="5.5" fill="#ff5f56"/>
  <circle cx="41" cy="17.5" r="5.5" fill="#ffbd2e"/>
  <circle cx="60" cy="17.5" r="5.5" fill="#27c93f"/>
  <text x="450" y="22" text-anchor="middle" font-family="ui-monospace, SFMono-Regular, Menlo, Consolas, monospace" font-size="13" fill="#8b949e">neofetch</text>
  <rect x="158" y="141" width="42" height="7" fill="#39d353"/><rect x="151" y="148" width="56" height="7" fill="#39d353"/><rect x="151" y="155" width="56" height="7" fill="#39d353"/><rect x="151" y="162" width="14" height="7" fill="#39d353"/><rect x="172" y="162" width="35" height="7" fill="#39d353"/><rect x="151" y="169" width="56" height="7" fill="#39d353"/><rect x="151" y="176" width="56" height="7" fill="#39d353"/><rect x="151" y="183" width="49" height="7" fill="#39d353"/><rect x="151" y="190" width="42" height="7" fill="#39d353"/><rect x="151" y="197" width="49" height="7" fill="#39d353"/><rect x="60" y="204" width="7" height="7" fill="#39d353"/><rect x="151" y="204" width="56" height="7" fill="#39d353"/><rect x="60" y="211" width="14" height="7" fill="#39d353"/><rect x="144" y="211" width="63" height="7" fill="#39d353"/><rect x="60" y="218" width="21" height="7" fill="#39d353"/><rect x="144" y="218" width="63" height="7" fill="#39d353"/><rect x="60" y="225" width="28" height="7" fill="#39d353"/><rect x="116" y="225" width="98" height="7" fill="#39d353"/><rect x="60" y="232" width="35" height="7" fill="#39d353"/><rect x="109" y="232" width="105" height="7" fill="#39d353"/><rect x="60" y="239" width="154" height="7" fill="#39d353"/><rect x="67" y="246" width="147" height="7" fill="#39d353"/><rect x="74" y="253" width="140" height="7" fill="#39d353"/><rect x="81" y="260" width="133" height="7" fill="#39d353"/><rect x="88" y="267" width="126" height="7" fill="#39d353"/><rect x="95" y="274" width="28" height="7" fill="#39d353"/><rect x="158" y="274" width="28" height="7" fill="#39d353"/><rect x="95" y="281" width="21" height="7" fill="#39d353"/><rect x="158" y="281" width="21" height="7" fill="#39d353"/><rect x="95" y="288" width="21" height="7" fill="#39d353"/><rect x="158" y="288" width="21" height="7" fill="#39d353"/><rect x="95" y="295" width="21" height="7" fill="#39d353"/><rect x="158" y="295" width="21" height="7" fill="#39d353"/><rect x="88" y="302" width="35" height="7" fill="#39d353"/><rect x="151" y="302" width="35" height="7" fill="#39d353"/>
  <text x="250" y="70" textLength="139.2" lengthAdjust="spacingAndGlyphs" font-family="ui-monospace, SFMono-Regular, Menlo, Consolas, monospace" font-size="14.5" fill="#39d353" font-weight="700">alexandre@github</text>
  <text x="250" y="92" textLength="452.4" lengthAdjust="spacingAndGlyphs" font-family="ui-monospace, SFMono-Regular, Menlo, Consolas, monospace" font-size="14.5" fill="#30363d">────────────────────────────────────────────────────</text>
  <text x="250" y="114" textLength="17.4" lengthAdjust="spacingAndGlyphs" font-family="ui-monospace, SFMono-Regular, Menlo, Consolas, monospace" font-size="14.5" fill="#58a6ff" font-weight="700">OS</text>
  <text x="371.8" y="114" textLength="234.9" lengthAdjust="spacingAndGlyphs" font-family="ui-monospace, SFMono-Regular, Menlo, Consolas, monospace" font-size="14.5" fill="#e6edf3">Windows 11 · Ubuntu on WSL2</text>
  <text x="250" y="136" textLength="34.8" lengthAdjust="spacingAndGlyphs" font-family="ui-monospace, SFMono-Regular, Menlo, Consolas, monospace" font-size="14.5" fill="#58a6ff" font-weight="700">Host</text>
  <text x="371.8" y="136" textLength="313.2" lengthAdjust="spacingAndGlyphs" font-family="ui-monospace, SFMono-Regular, Menlo, Consolas, monospace" font-size="14.5" fill="#e6edf3">Dettalles Consultoria · Curitiba, PR</text>
  <text x="250" y="158" textLength="34.8" lengthAdjust="spacingAndGlyphs" font-family="ui-monospace, SFMono-Regular, Menlo, Consolas, monospace" font-size="14.5" fill="#58a6ff" font-weight="700">Role</text>
  <text x="371.8" y="158" textLength="400.2" lengthAdjust="spacingAndGlyphs" font-family="ui-monospace, SFMono-Regular, Menlo, Consolas, monospace" font-size="14.5" fill="#e6edf3">Desenvolvedor de Software · Backend &amp; Frontend</text>
  <text x="250" y="180" textLength="52.2" lengthAdjust="spacingAndGlyphs" font-family="ui-monospace, SFMono-Regular, Menlo, Consolas, monospace" font-size="14.5" fill="#58a6ff" font-weight="700">Uptime</text>
  <text x="371.8" y="180" textLength="339.3" lengthAdjust="spacingAndGlyphs" font-family="ui-monospace, SFMono-Regular, Menlo, Consolas, monospace" font-size="14.5" fill="#e6edf3">4+ anos escrevendo software em produção</text>
  <text x="250" y="202" textLength="78.3" lengthAdjust="spacingAndGlyphs" font-family="ui-monospace, SFMono-Regular, Menlo, Consolas, monospace" font-size="14.5" fill="#58a6ff" font-weight="700">Languages</text>
  <text x="371.8" y="202" textLength="339.3" lengthAdjust="spacingAndGlyphs" font-family="ui-monospace, SFMono-Regular, Menlo, Consolas, monospace" font-size="14.5" fill="#e6edf3">PHP · ADVPL · Python · JavaScript · SQL</text>
  <text x="250" y="224" textLength="87" lengthAdjust="spacingAndGlyphs" font-family="ui-monospace, SFMono-Regular, Menlo, Consolas, monospace" font-size="14.5" fill="#58a6ff" font-weight="700">Frameworks</text>
  <text x="371.8" y="224" textLength="374.1" lengthAdjust="spacingAndGlyphs" font-family="ui-monospace, SFMono-Regular, Menlo, Consolas, monospace" font-size="14.5" fill="#e6edf3">Laravel · Vue.js · Django · React · Flutter</text>
  <text x="250" y="246" textLength="69.6" lengthAdjust="spacingAndGlyphs" font-family="ui-monospace, SFMono-Regular, Menlo, Consolas, monospace" font-size="14.5" fill="#58a6ff" font-weight="700">Database</text>
  <text x="371.8" y="246" textLength="330.6" lengthAdjust="spacingAndGlyphs" font-family="ui-monospace, SFMono-Regular, Menlo, Consolas, monospace" font-size="14.5" fill="#e6edf3">MySQL · modelagem, tuning, integridade</text>
  <text x="250" y="268" textLength="26.1" lengthAdjust="spacingAndGlyphs" font-family="ui-monospace, SFMono-Regular, Menlo, Consolas, monospace" font-size="14.5" fill="#58a6ff" font-weight="700">ERP</text>
  <text x="371.8" y="268" textLength="304.5" lengthAdjust="spacingAndGlyphs" font-family="ui-monospace, SFMono-Regular, Menlo, Consolas, monospace" font-size="14.5" fill="#e6edf3">TOTVS Protheus · FIN, EST, FAT, COM</text>
  <text x="250" y="290" textLength="104.4" lengthAdjust="spacingAndGlyphs" font-family="ui-monospace, SFMono-Regular, Menlo, Consolas, monospace" font-size="14.5" fill="#58a6ff" font-weight="700">Integrations</text>
  <text x="371.8" y="290" textLength="321.9" lengthAdjust="spacingAndGlyphs" font-family="ui-monospace, SFMono-Regular, Menlo, Consolas, monospace" font-size="14.5" fill="#e6edf3">CNAB 240 · PIX · Boletos · CSV · REST</text>
  <text x="250" y="312" textLength="43.5" lengthAdjust="spacingAndGlyphs" font-family="ui-monospace, SFMono-Regular, Menlo, Consolas, monospace" font-size="14.5" fill="#58a6ff" font-weight="700">Tools</text>
  <text x="371.8" y="312" textLength="374.1" lengthAdjust="spacingAndGlyphs" font-family="ui-monospace, SFMono-Regular, Menlo, Consolas, monospace" font-size="14.5" fill="#e6edf3">Git · Docker · Laravel Mix · AutoCAD/Python</text>
  <text x="250" y="334" textLength="69.6" lengthAdjust="spacingAndGlyphs" font-family="ui-monospace, SFMono-Regular, Menlo, Consolas, monospace" font-size="14.5" fill="#58a6ff" font-weight="700">Learning</text>
  <text x="371.8" y="334" textLength="321.9" lengthAdjust="spacingAndGlyphs" font-family="ui-monospace, SFMono-Regular, Menlo, Consolas, monospace" font-size="14.5" fill="#e6edf3">Análise e Desenvolvimento de Sistemas</text>
  <text x="250" y="356" textLength="52.2" lengthAdjust="spacingAndGlyphs" font-family="ui-monospace, SFMono-Regular, Menlo, Consolas, monospace" font-size="14.5" fill="#58a6ff" font-weight="700">Locale</text>
  <text x="371.8" y="356" textLength="295.8" lengthAdjust="spacingAndGlyphs" font-family="ui-monospace, SFMono-Regular, Menlo, Consolas, monospace" font-size="14.5" fill="#e6edf3">pt_BR.UTF-8 · en_US (intermediate)</text>
  <rect x="250" y="392" width="24" height="14" rx="2" fill="#ff5f56"/>
  <rect x="280" y="392" width="24" height="14" rx="2" fill="#ffbd2e"/>
  <rect x="310" y="392" width="24" height="14" rx="2" fill="#27c93f"/>
  <rect x="340" y="392" width="24" height="14" rx="2" fill="#7ee787"/>
  <rect x="370" y="392" width="24" height="14" rx="2" fill="#79c0ff"/>
  <rect x="400" y="392" width="24" height="14" rx="2" fill="#58a6ff"/>
  <rect x="430" y="392" width="24" height="14" rx="2" fill="#d2a8ff"/>
  <rect x="460" y="392" width="24" height="14" rx="2" fill="#8b949e"/>
</svg>
